<?xml version="1.0" encoding="utf-8"?>
<svg width="212" height="44" viewBox="0 0 168 27" fill="none" xmlns="http://www.w3.org/2000/svg">
  <defs>
    <filter id="filter0_d_2164_2166" x="31.0008" y="1.27399" width="0.99596" height="1.00853" filterUnits="userSpaceOnUse" color-interpolation-filters="sRGB">
      <feFlood flood-opacity="0" result="BackgroundImageFix"/>
      <feColorMatrix in="SourceAlpha" type="matrix" values="0 0 0 0 0 0 0 0 0 0 0 0 0 0 0 0 0 0 127 0" result="hardAlpha"/>
      <feOffset/>
      <feGaussianBlur stdDeviation="0.170743"/>
      <feComposite in2="hardAlpha" operator="out"/>
      <feColorMatrix type="matrix" values="0 0 0 0 0.592157 0 0 0 0 0.392157 0 0 0 0 1 0 0 0 1 0"/>
      <feBlend mode="normal" in2="BackgroundImageFix" result="effect1_dropShadow_2164_2166"/>
      <feBlend mode="normal" in="SourceGraphic" in2="effect1_dropShadow_2164_2166" result="shape"/>
    </filter>
    <linearGradient id="paint1_linear_2164_2166" x1="31.3515" y1="1.76142" x2="31.6627" y2="1.7677" gradientUnits="userSpaceOnUse">
      <stop stop-color="#26A4FF"/>
      <stop offset="1" stop-color="#0D9AFF"/>
    </linearGradient>
    <filter id="filter1_d_2164_2166" x="4.39242" y="4.30758" width="2.58381" height="2.6164" filterUnits="userSpaceOnUse" color-interpolation-filters="sRGB">
      <feFlood flood-opacity="0" result="BackgroundImageFix"/>
      <feColorMatrix in="SourceAlpha" type="matrix" values="0 0 0 0 0 0 0 0 0 0 0 0 0 0 0 0 0 0 127 0" result="hardAlpha"/>
      <feOffset/>
      <feGaussianBlur stdDeviation="0.442949"/>
      <feComposite in2="hardAlpha" operator="out"/>
      <feColorMatrix type="matrix" values="0 0 0 0 0.592157 0 0 0 0 0.392157 0 0 0 0 1 0 0 0 1 0"/>
      <feBlend mode="normal" in2="BackgroundImageFix" result="effect1_dropShadow_2164_2166"/>
      <feBlend mode="normal" in="SourceGraphic" in2="effect1_dropShadow_2164_2166" result="shape"/>
    </filter>
    <linearGradient id="paint2_linear_2164_2166" x1="5.30238" y1="5.57208" x2="6.10973" y2="5.58843" gradientUnits="userSpaceOnUse">
      <stop stop-color="#26A4FF"/>
      <stop offset="1" stop-color="#0D9AFF"/>
    </linearGradient>
    <filter id="filter2_d_2164_2166" x="0.210293" y="16.6759" width="2.58381" height="2.6164" filterUnits="userSpaceOnUse" color-interpolation-filters="sRGB">
      <feFlood flood-opacity="0" result="BackgroundImageFix"/>
      <feColorMatrix in="SourceAlpha" type="matrix" values="0 0 0 0 0 0 0 0 0 0 0 0 0 0 0 0 0 0 127 0" result="hardAlpha"/>
      <feOffset/>
      <feGaussianBlur stdDeviation="0.442949"/>
      <feComposite in2="hardAlpha" operator="out"/>
      <feColorMatrix type="matrix" values="0 0 0 0 0.592157 0 0 0 0 0.392157 0 0 0 0 1 0 0 0 1 0"/>
      <feBlend mode="normal" in2="BackgroundImageFix" result="effect1_dropShadow_2164_2166"/>
      <feBlend mode="normal" in="SourceGraphic" in2="effect1_dropShadow_2164_2166" result="shape"/>
    </filter>
    <linearGradient id="paint3_linear_2164_2166" x1="1.12025" y1="17.9404" x2="1.92761" y2="17.9566" gradientUnits="userSpaceOnUse">
      <stop stop-color="#26A4FF"/>
      <stop offset="1" stop-color="#0D9AFF"/>
    </linearGradient>
    <filter id="filter3_d_2164_2166" x="24.2508" y="20.0711" width="2.58381" height="2.6164" filterUnits="userSpaceOnUse" color-interpolation-filters="sRGB">
      <feFlood flood-opacity="0" result="BackgroundImageFix"/>
      <feColorMatrix in="SourceAlpha" type="matrix" values="0 0 0 0 0 0 0 0 0 0 0 0 0 0 0 0 0 0 127 0" result="hardAlpha"/>
      <feOffset/>
      <feGaussianBlur stdDeviation="0.442949"/>
      <feComposite in2="hardAlpha" operator="out"/>
      <feColorMatrix type="matrix" values="0 0 0 0 0.592157 0 0 0 0 0.392157 0 0 0 0 1 0 0 0 1 0"/>
      <feBlend mode="normal" in2="BackgroundImageFix" result="effect1_dropShadow_2164_2166"/>
      <feBlend mode="normal" in="SourceGraphic" in2="effect1_dropShadow_2164_2166" result="shape"/>
    </filter>
    <linearGradient id="paint4_linear_2164_2166" x1="25.1609" y1="21.3356" x2="25.9682" y2="21.352" gradientUnits="userSpaceOnUse">
      <stop stop-color="#26A4FF"/>
      <stop offset="1" stop-color="#0D9AFF"/>
    </linearGradient>
    <filter id="filter4_d_2164_2166" x="6.02961" y="13.9844" width="0.99596" height="1.00853" filterUnits="userSpaceOnUse" color-interpolation-filters="sRGB">
      <feFlood flood-opacity="0" result="BackgroundImageFix"/>
      <feColorMatrix in="SourceAlpha" type="matrix" values="0 0 0 0 0 0 0 0 0 0 0 0 0 0 0 0 0 0 127 0" result="hardAlpha"/>
      <feOffset/>
      <feGaussianBlur stdDeviation="0.170743"/>
      <feComposite in2="hardAlpha" operator="out"/>
      <feColorMatrix type="matrix" values="0 0 0 0 0.592157 0 0 0 0 0.392157 0 0 0 0 1 0 0 0 1 0"/>
      <feBlend mode="normal" in2="BackgroundImageFix" result="effect1_dropShadow_2164_2166"/>
      <feBlend mode="normal" in="SourceGraphic" in2="effect1_dropShadow_2164_2166" result="shape"/>
    </filter>
    <linearGradient id="paint5_linear_2164_2166" x1="6.38037" y1="14.472" x2="6.69158" y2="14.4782" gradientUnits="userSpaceOnUse">
      <stop stop-color="#26A4FF"/>
      <stop offset="1" stop-color="#0D9AFF"/>
    </linearGradient>
    <filter id="filter5_d_2164_2166" x="11.7417" y="0.463378" width="1.56494" height="1.58484" filterUnits="userSpaceOnUse" color-interpolation-filters="sRGB">
      <feFlood flood-opacity="0" result="BackgroundImageFix"/>
      <feColorMatrix in="SourceAlpha" type="matrix" values="0 0 0 0 0 0 0 0 0 0 0 0 0 0 0 0 0 0 127 0" result="hardAlpha"/>
      <feOffset/>
      <feGaussianBlur stdDeviation="0.268311"/>
      <feComposite in2="hardAlpha" operator="out"/>
      <feColorMatrix type="matrix" values="0 0 0 0 0.592157 0 0 0 0 0.392157 0 0 0 0 1 0 0 0 1 0"/>
      <feBlend mode="normal" in2="BackgroundImageFix" result="effect1_dropShadow_2164_2166"/>
      <feBlend mode="normal" in="SourceGraphic" in2="effect1_dropShadow_2164_2166" result="shape"/>
    </filter>
    <linearGradient id="paint6_linear_2164_2166" x1="12.2929" y1="1.22933" x2="12.7819" y2="1.23921" gradientUnits="userSpaceOnUse">
      <stop stop-color="#26A4FF"/>
      <stop offset="1" stop-color="#0D9AFF"/>
    </linearGradient>
    <filter id="filter6_d_2164_2166" x="0.732341" y="9.55252" width="4.62028" height="4.71879" filterUnits="userSpaceOnUse" color-interpolation-filters="sRGB">
      <feFlood flood-opacity="0" result="BackgroundImageFix"/>
      <feColorMatrix in="SourceAlpha" type="matrix" values="0 0 0 0 0 0 0 0 0 0 0 0 0 0 0 0 0 0 127 0" result="hardAlpha"/>
      <feOffset dy="0.281606"/>
      <feGaussianBlur stdDeviation="0.540812"/>
      <feComposite in2="hardAlpha" operator="out"/>
      <feColorMatrix type="matrix" values="0 0 0 0 0.220722 0 0 0 0 0.210451 0 0 0 0 0.241667 0 0 0 0.6 0"/>
      <feBlend mode="normal" in2="BackgroundImageFix" result="effect1_dropShadow_2164_2166"/>
      <feBlend mode="normal" in="SourceGraphic" in2="effect1_dropShadow_2164_2166" result="shape"/>
    </filter>
    <linearGradient id="paint7_linear_2164_2166" x1="4.17747" y1="11.3173" x2="1.74065" y2="11.7212" gradientUnits="userSpaceOnUse">
      <stop stop-color="#26A4FF"/>
      <stop offset="1" stop-color="#0D9AFF"/>
    </linearGradient>
    <linearGradient id="paint8_linear_2164_2166" x1="1.27832" y1="2.04004" x2="26.2191" y2="26.0216" gradientUnits="userSpaceOnUse" gradientTransform="matrix(1, 0, 0, 1, 3.868637, 3.441869)">
      <stop stop-color="#868CFF"/>
      <stop offset="1" stop-color="#4318FF"/>
    </linearGradient>
    <filter id="filter8_d_2164_2166" x="20.2885" y="2.26113" width="7.65252" height="7.78802" filterUnits="userSpaceOnUse" color-interpolation-filters="sRGB">
      <feFlood flood-opacity="0" result="BackgroundImageFix"/>
      <feColorMatrix in="SourceAlpha" type="matrix" values="0 0 0 0 0 0 0 0 0 0 0 0 0 0 0 0 0 0 127 0" result="hardAlpha"/>
      <feOffset dy="0.554677"/>
      <feGaussianBlur stdDeviation="1.06523"/>
      <feComposite in2="hardAlpha" operator="out"/>
      <feColorMatrix type="matrix" values="0 0 0 0 0.296824 0 0 0 0 0.244184 0 0 0 0 0.404167 0 0 0 0.6 0"/>
      <feBlend mode="normal" in2="BackgroundImageFix" result="effect1_dropShadow_2164_2166"/>
      <feBlend mode="normal" in="SourceGraphic" in2="effect1_dropShadow_2164_2166" result="shape"/>
    </filter>
    <linearGradient id="paint11_linear_2164_2166" x1="25.733" y1="5.65576" x2="22.3517" y2="5.25926" gradientUnits="userSpaceOnUse">
      <stop stop-color="#26A4FF"/>
      <stop offset="1" stop-color="#0D9AFF"/>
    </linearGradient>
  </defs>
  <g filter="url(#filter0_d_2164_2166)" transform="matrix(1, 0, 0, 1, 3.868647156188601, 3.4418731248657934)">
    <path d="M31.4988 1.94103C31.5852 1.94103 31.6553 1.86815 31.6553 1.77825C31.6553 1.68836 31.5852 1.61548 31.4988 1.61548C31.4124 1.61548 31.3423 1.68836 31.3423 1.77825C31.3423 1.86815 31.4124 1.94103 31.4988 1.94103Z" fill="url(#paint1_linear_2164_2166)"/>
  </g>
  <g filter="url(#filter1_d_2164_2166)" transform="matrix(1, 0, 0, 1, 3.868647156188601, 3.4418731248657934)">
    <path d="M5.68436 6.03804C5.90861 6.03804 6.09039 5.84898 6.09039 5.61576C6.09039 5.38254 5.90861 5.19348 5.68436 5.19348C5.46011 5.19348 5.27832 5.38254 5.27832 5.61576C5.27832 5.84898 5.46011 6.03804 5.68436 6.03804Z" fill="url(#paint2_linear_2164_2166)"/>
  </g>
  <g filter="url(#filter2_d_2164_2166)" transform="matrix(1, 0, 0, 1, 3.868647156188601, 3.4418731248657934)">
    <path d="M1.50223 18.4063C1.72648 18.4063 1.90827 18.2173 1.90827 17.984C1.90827 17.7508 1.72648 17.5618 1.50223 17.5618C1.27798 17.5618 1.09619 17.7508 1.09619 17.984C1.09619 18.2173 1.27798 18.4063 1.50223 18.4063Z" fill="url(#paint3_linear_2164_2166)"/>
  </g>
  <g filter="url(#filter3_d_2164_2166)" transform="matrix(1, 0, 0, 1, 3.868647156188601, 3.4418731248657934)">
    <path d="M25.5428 21.8016C25.767 21.8016 25.9488 21.6125 25.9488 21.3793C25.9488 21.1461 25.767 20.957 25.5428 20.957C25.3185 20.957 25.1367 21.1461 25.1367 21.3793C25.1367 21.6125 25.3185 21.8016 25.5428 21.8016Z" fill="url(#paint4_linear_2164_2166)"/>
  </g>
  <g filter="url(#filter4_d_2164_2166)" transform="matrix(1, 0, 0, 1, 3.868647156188601, 3.4418731248657934)">
    <path d="M6.52761 14.6515C6.61405 14.6515 6.68412 14.5786 6.68412 14.4887C6.68412 14.3988 6.61405 14.3259 6.52761 14.3259C6.44117 14.3259 6.37109 14.3988 6.37109 14.4887C6.37109 14.5786 6.44117 14.6515 6.52761 14.6515Z" fill="url(#paint5_linear_2164_2166)"/>
  </g>
  <g filter="url(#filter5_d_2164_2166)" transform="matrix(1, 0, 0, 1, 3.868647156188601, 3.4418731248657934)">
    <path d="M12.5243 1.51158C12.6601 1.51158 12.7702 1.39706 12.7702 1.25579C12.7702 1.11452 12.6601 1 12.5243 1C12.3884 1 12.2783 1.11452 12.2783 1.25579C12.2783 1.39706 12.3884 1.51158 12.5243 1.51158Z" fill="url(#paint6_linear_2164_2166)"/>
  </g>
  <g filter="url(#filter6_d_2164_2166)" transform="matrix(1, 0, 0, 1, 3.868647156188601, 3.4418731248657934)">
    <path d="M3.22758 12.9061C3.14757 12.9187 3.07313 12.8679 3.04946 12.783C2.82758 12.0289 2.71089 11.9374 1.98526 11.965C1.90152 11.9675 1.8278 11.906 1.81574 11.8228C1.80352 11.7385 1.85569 11.6595 1.93609 11.6339C2.63013 11.4199 2.70486 11.3161 2.72206 10.5257C2.72411 10.438 2.77857 10.3669 2.85747 10.3545C2.93859 10.3417 3.01192 10.3929 3.03781 10.4773C3.2573 11.2306 3.37399 11.3221 4.09851 11.2946C4.18464 11.2929 4.25691 11.3525 4.26931 11.4379C4.28137 11.521 4.23141 11.5997 4.1488 11.6257C3.45397 11.8421 3.38019 11.9446 3.36521 12.7346C3.36111 12.8239 3.30537 12.894 3.22758 12.9061Z" fill="url(#paint7_linear_2164_2166)"/>
  </g>
  <path d="M 20.5 9.635 C 20.289 9.717 20.148 9.927 20.148 10.161 C 20.148 10.395 20.289 10.605 20.5 10.688 C 22.182 11.344 23.51 12.725 24.142 14.475 C 24.221 14.695 24.423 14.841 24.648 14.841 C 24.873 14.841 25.075 14.695 25.154 14.475 C 25.786 12.725 27.114 11.344 28.796 10.688 C 29.007 10.605 29.148 10.395 29.148 10.161 C 29.148 9.927 29.007 9.717 28.796 9.635 C 27.114 8.978 25.786 7.597 25.154 5.847 C 25.075 5.627 24.873 5.481 24.648 5.481 C 24.423 5.481 24.221 5.627 24.142 5.847 C 23.51 7.597 22.182 8.978 20.5 9.635 Z M 14.762 9.054 C 14.64 8.777 14.373 8.601 14.082 8.601 C 13.792 8.601 13.525 8.777 13.403 9.054 C 11.805 12.641 9.034 15.523 5.584 17.181 C 5.317 17.308 5.148 17.586 5.148 17.893 C 5.148 18.2 5.317 18.473 5.584 18.6 C 9.033 20.256 11.807 23.139 13.398 26.726 C 13.52 27.004 13.787 27.18 14.078 27.18 C 14.368 27.18 14.635 27.004 14.757 26.726 C 16.352 23.136 19.124 20.253 22.576 18.595 C 22.843 18.468 23.012 18.19 23.012 17.888 C 23.012 17.586 22.843 17.308 22.576 17.181 C 19.127 15.526 16.355 12.641 14.762 9.054 Z M 24.142 21.447 C 23.51 23.197 22.182 24.578 20.5 25.235 C 20.289 25.317 20.148 25.527 20.148 25.761 C 20.148 25.995 20.289 26.205 20.5 26.288 C 22.182 26.944 23.51 28.325 24.142 30.075 C 24.221 30.295 24.423 30.441 24.648 30.441 C 24.873 30.441 25.075 30.295 25.154 30.075 C 25.786 28.325 27.114 26.944 28.796 26.288 C 29.007 26.205 29.148 25.995 29.148 25.761 C 29.148 25.527 29.007 25.317 28.796 25.235 C 27.114 24.578 25.786 23.197 25.154 21.447 C 25.075 21.227 24.873 21.081 24.648 21.081 C 24.423 21.081 24.221 21.227 24.142 21.447 Z" fill="url(#paint8_linear_2164_2166)" transform="matrix(1, 0, 0, 1, 7.105427357601002e-15, 0)"/>
  <g filter="url(#filter8_d_2164_2166)" transform="matrix(1, 0, 0, 1, 3.868647156188601, 3.4418731248657934)">
    <path d="M23.872 7.36177C23.7616 7.34534 23.6827 7.24737 23.6838 7.12559C23.6787 6.03816 23.5595 5.86916 22.5907 5.60594C22.4792 5.57474 22.4053 5.46284 22.4211 5.34812C22.4372 5.23175 22.5363 5.14897 22.6522 5.14834C23.6504 5.15229 23.7888 5.046 24.1132 4.0094C24.1494 3.89443 24.2485 3.82298 24.3574 3.8392C24.4694 3.85589 24.5467 3.95363 24.5486 4.07593C24.551 5.16124 24.6701 5.33034 25.6374 5.59325C25.7518 5.62653 25.8245 5.735 25.8083 5.85294C25.7925 5.96765 25.6964 6.05096 25.5774 6.05116C24.5772 6.05012 24.4406 6.15496 24.1193 7.19204C24.0798 7.30821 23.9794 7.37778 23.872 7.36177Z" fill="url(#paint11_linear_2164_2166)"/>
  </g>
  <path d="M 37.525 25.47 L 37.525 10.867 L 40.473 10.867 L 40.473 25.47 Z M 43.048 14.891 L 45.627 14.891 L 45.627 16.336 Q 47.012 14.652 48.925 14.652 Q 49.941 14.652 50.688 15.071 Q 51.435 15.489 51.913 16.336 Q 52.61 15.489 53.417 15.071 Q 54.224 14.652 55.14 14.652 Q 56.306 14.652 57.112 15.126 Q 57.919 15.599 58.318 16.515 Q 58.607 17.192 58.607 18.707 L 58.607 25.47 L 55.808 25.47 L 55.808 19.424 Q 55.808 17.85 55.519 17.392 Q 55.13 16.794 54.323 16.794 Q 53.736 16.794 53.218 17.153 Q 52.7 17.511 52.471 18.203 Q 52.242 18.896 52.242 20.39 L 52.242 25.47 L 49.443 25.47 L 49.443 19.673 Q 49.443 18.129 49.293 17.681 Q 49.144 17.232 48.83 17.013 Q 48.516 16.794 47.978 16.794 Q 47.331 16.794 46.813 17.143 Q 46.295 17.491 46.071 18.149 Q 45.847 18.806 45.847 20.33 L 45.847 25.47 L 43.048 25.47 Z M 63.486 18.119 L 60.946 17.661 Q 61.374 16.127 62.42 15.39 Q 63.466 14.652 65.528 14.652 Q 67.401 14.652 68.317 15.096 Q 69.234 15.539 69.607 16.221 Q 69.981 16.904 69.981 18.726 L 69.951 21.994 Q 69.951 23.388 70.085 24.051 Q 70.22 24.713 70.588 25.47 L 67.819 25.47 Q 67.709 25.191 67.55 24.643 Q 67.48 24.394 67.451 24.315 Q 66.733 25.012 65.917 25.36 Q 65.1 25.709 64.173 25.709 Q 62.54 25.709 61.598 24.823 Q 60.657 23.936 60.657 22.581 Q 60.657 21.685 61.085 20.983 Q 61.514 20.28 62.286 19.907 Q 63.058 19.533 64.512 19.254 Q 66.474 18.886 67.231 18.567 L 67.231 18.288 Q 67.231 17.481 66.833 17.138 Q 66.434 16.794 65.329 16.794 Q 64.582 16.794 64.163 17.088 Q 63.745 17.382 63.486 18.119 Z M 67.231 20.39 Q 66.693 20.569 65.528 20.818 Q 64.363 21.067 64.004 21.306 Q 63.456 21.695 63.456 22.292 Q 63.456 22.88 63.894 23.308 Q 64.333 23.737 65.01 23.737 Q 65.767 23.737 66.454 23.239 Q 66.962 22.86 67.122 22.312 Q 67.231 21.954 67.231 20.948 Z M 72.485 26.167 L 75.683 26.556 Q 75.762 27.114 76.051 27.323 Q 76.45 27.622 77.306 27.622 Q 78.402 27.622 78.95 27.293 Q 79.318 27.074 79.508 26.586 Q 79.637 26.237 79.637 25.301 L 79.637 23.757 Q 78.382 25.47 76.47 25.47 Q 74.338 25.47 73.093 23.667 Q 72.117 22.243 72.117 20.121 Q 72.117 17.461 73.397 16.057 Q 74.677 14.652 76.579 14.652 Q 78.542 14.652 79.817 16.376 L 79.817 14.891 L 82.436 14.891 L 82.436 24.384 Q 82.436 26.257 82.127 27.183 Q 81.819 28.11 81.261 28.638 Q 80.703 29.166 79.772 29.464 Q 78.84 29.763 77.416 29.763 Q 74.726 29.763 73.601 28.842 Q 72.475 27.92 72.475 26.506 Q 72.475 26.366 72.485 26.167 Z M 74.985 19.962 Q 74.985 21.645 75.638 22.427 Q 76.29 23.209 77.247 23.209 Q 78.273 23.209 78.98 22.407 Q 79.687 21.605 79.687 20.031 Q 79.687 18.388 79.01 17.591 Q 78.332 16.794 77.296 16.794 Q 76.29 16.794 75.638 17.576 Q 74.985 18.358 74.985 19.962 Z M 85.207 13.457 L 85.207 10.867 L 88.006 10.867 L 88.006 13.457 Z M 85.207 25.47 L 85.207 14.891 L 88.006 14.891 L 88.006 25.47 Z M 100.093 18.019 L 97.334 18.517 Q 97.194 17.691 96.701 17.272 Q 96.208 16.854 95.421 16.854 Q 94.376 16.854 93.753 17.576 Q 93.13 18.298 93.13 19.991 Q 93.13 21.874 93.763 22.651 Q 94.395 23.428 95.461 23.428 Q 96.258 23.428 96.766 22.975 Q 97.274 22.522 97.483 21.416 L 100.233 21.884 Q 99.804 23.777 98.589 24.743 Q 97.374 25.709 95.332 25.709 Q 93.011 25.709 91.631 24.245 Q 90.252 22.781 90.252 20.191 Q 90.252 17.571 91.636 16.112 Q 93.021 14.652 95.382 14.652 Q 97.314 14.652 98.455 15.484 Q 99.595 16.316 100.093 18.019 Z M 102.12 25.47 L 102.12 10.867 L 104.919 10.867 L 104.919 18.617 L 108.196 14.891 L 111.642 14.891 L 108.026 18.756 L 111.901 25.47 L 108.883 25.47 L 106.224 20.719 L 104.919 22.083 L 104.919 25.47 Z" style="fill: rgb(113, 104, 255);"/>
</svg>